<svg width="167" height="44" viewBox="0 0 167 44" fill="none" xmlns="http://www.w3.org/2000/svg">
<path d="M70.1637 33.0867H61.8953L60.5698 37H54.9207L62.9367 14.8455H69.1854L77.2014 37H71.4892L70.1637 33.0867ZM68.7751 28.9209L66.0295 20.8102L63.3154 28.9209H68.7751ZM84.9114 37.2525C83.3756 37.2525 82.008 36.9895 80.8088 36.4635C79.6095 35.9375 78.6627 35.2222 77.9684 34.3175C77.2741 33.3917 76.8849 32.3608 76.8008 31.2247H82.1342C82.1974 31.8348 82.4814 32.3293 82.9863 32.708C83.4913 33.0867 84.1119 33.276 84.8483 33.276C85.5216 33.276 86.037 33.1498 86.3947 32.8973C86.7734 32.6238 86.9628 32.2767 86.9628 31.8559C86.9628 31.3509 86.6998 30.9827 86.1738 30.7513C85.6478 30.4988 84.7957 30.2253 83.6175 29.9308C82.3552 29.6362 81.3032 29.3311 80.4616 29.0156C79.62 28.6789 78.8942 28.1635 78.284 27.4692C77.6739 26.7538 77.3688 25.7965 77.3688 24.5973C77.3688 23.5874 77.6423 22.6722 78.1894 21.8517C78.7574 21.0101 79.578 20.3473 80.651 19.8634C81.745 19.3795 83.0389 19.1376 84.5327 19.1376C86.7419 19.1376 88.4776 19.6846 89.74 20.7786C91.0234 21.8727 91.7598 23.3244 91.9491 25.1338H86.9628C86.8786 24.5237 86.6051 24.0397 86.1422 23.6821C85.7004 23.3244 85.1113 23.1456 84.3749 23.1456C83.7438 23.1456 83.2598 23.2718 82.9232 23.5243C82.5866 23.7557 82.4183 24.0818 82.4183 24.5026C82.4183 25.0076 82.6813 25.3863 83.2072 25.6387C83.7543 25.8912 84.5958 26.1437 85.732 26.3962C87.0364 26.7328 88.0989 27.0694 88.9194 27.406C89.74 27.7216 90.4553 28.2476 91.0655 28.984C91.6966 29.6993 92.0227 30.6671 92.0438 31.8874C92.0438 32.9184 91.7492 33.8441 91.1601 34.6646C90.5921 35.4641 89.761 36.0953 88.667 36.5582C87.594 37.021 86.3421 37.2525 84.9114 37.2525ZM104.213 37L98.8485 29.6152V37H93.4519V13.6463H98.8485V26.554L104.182 19.39H110.841L103.519 28.2266L110.904 37H104.213ZM113.592 37.2525C112.645 37.2525 111.866 36.979 111.256 36.4319C110.667 35.8639 110.373 35.1696 110.373 34.349C110.373 33.5075 110.667 32.8026 111.256 32.2346C111.866 31.6665 112.645 31.3825 113.592 31.3825C114.517 31.3825 115.275 31.6665 115.864 32.2346C116.474 32.8026 116.779 33.5075 116.779 34.349C116.779 35.1696 116.474 35.8639 115.864 36.4319C115.275 36.979 114.517 37.2525 113.592 37.2525ZM123.477 14.8455V37H118.08V14.8455H123.477ZM136.224 19.2007C138.286 19.2007 139.927 19.874 141.147 21.2205C142.389 22.546 143.009 24.3764 143.009 26.7117V37H137.644V27.4376C137.644 26.2594 137.339 25.3442 136.729 24.692C136.119 24.0397 135.299 23.7136 134.268 23.7136C133.237 23.7136 132.416 24.0397 131.806 24.692C131.196 25.3442 130.891 26.2594 130.891 27.4376V37H125.494V19.39H130.891V21.7254C131.438 20.947 132.174 20.3368 133.1 19.895C134.026 19.4321 135.067 19.2007 136.224 19.2007Z" fill="#1B012F"/>
<rect width="43.832" height="43.832" rx="7.88976" fill="#59108F"/>
<g filter="url(#filter0_di)">
<path d="M33.2581 32.413H29.3488C29.1853 32.413 29.0508 32.2854 29.0363 32.1225C29.0317 32.071 29.0268 32.0211 29.0215 31.9726C28.7974 29.9298 26.5983 28.1752 24.5583 28.4238C23.0693 28.6052 21.8351 29.7293 20.3445 29.8976C19.3393 30.011 18.4622 29.9594 17.4597 29.7629C16.5809 29.5907 15.7327 29.2756 14.952 28.8372C13.1132 27.8044 12.126 26.7409 11.2107 25.1387C10.681 24.2113 10.303 23.1958 10.1655 22.1367C10.0517 21.2602 10.0589 20.4879 10.1545 19.6373C10.3005 18.3379 10.7168 17.0731 11.3964 15.956C12.3505 14.3877 13.3817 13.4125 15.0617 12.4997C15.7732 12.1131 16.5387 11.8304 17.3297 11.6567C19.3325 11.2169 20.629 11.3458 22.576 11.956C23.6591 12.2955 24.8356 13.0229 25.8362 13.9722C28.0244 16.0481 28.1912 19.3058 28.2465 22.3215C28.2516 22.601 27.9961 22.8124 27.721 22.7627C26.3697 22.5183 25.3982 22.4987 24.0703 22.7098C23.7144 22.7664 23.4215 22.3979 23.5175 22.0505C23.5592 21.8998 23.5918 21.7518 23.6163 21.6058C24.0089 19.2711 22.4112 16.606 20.0548 16.3763C18.718 16.246 17.3944 16.7918 16.4139 17.8864C15.8287 18.4381 15.505 19.3034 15.4029 20.2261C15.1383 22.6172 17.0941 24.9295 19.4971 25.0438C19.9556 25.0656 20.3982 24.999 20.8506 24.8457C22.276 24.3625 23.6654 23.6404 25.1662 23.7534C29.6813 24.0934 32.8523 26.1288 33.6867 31.9218C33.7241 32.1814 33.5204 32.413 33.2581 32.413Z" fill="#FAFAFA"/>
</g>
<defs>
<filter id="filter0_di" x="8.44912" y="11.3963" width="26.8744" height="24.2814" filterUnits="userSpaceOnUse" color-interpolation-filters="sRGB">
<feFlood flood-opacity="0" result="BackgroundImageFix"/>
<feColorMatrix in="SourceAlpha" type="matrix" values="0 0 0 0 0 0 0 0 0 0 0 0 0 0 0 0 0 0 127 0" result="hardAlpha"/>
<feOffset dy="1.63237"/>
<feGaussianBlur stdDeviation="0.816183"/>
<feColorMatrix type="matrix" values="0 0 0 0 0 0 0 0 0 0 0 0 0 0 0 0 0 0 0.07 0"/>
<feBlend mode="normal" in2="BackgroundImageFix" result="effect1_dropShadow"/>
<feBlend mode="normal" in="SourceGraphic" in2="effect1_dropShadow" result="shape"/>
<feColorMatrix in="SourceAlpha" type="matrix" values="0 0 0 0 0 0 0 0 0 0 0 0 0 0 0 0 0 0 127 0" result="hardAlpha"/>
<feOffset dy="1.63237"/>
<feGaussianBlur stdDeviation="1.02023"/>
<feComposite in2="hardAlpha" operator="arithmetic" k2="-1" k3="1"/>
<feColorMatrix type="matrix" values="0 0 0 0 0.219608 0 0 0 0 0.533333 0 0 0 0 1 0 0 0 0.13 0"/>
<feBlend mode="normal" in2="shape" result="effect2_innerShadow"/>
</filter>
</defs>
</svg>
